<?xml version="1.0" standalone="no"?>
<!DOCTYPE svg PUBLIC "-//W3C//DTD SVG 20010904//EN"
 "http://www.w3.org/TR/2001/REC-SVG-20010904/DTD/svg10.dtd">
<svg version="1.0" xmlns="http://www.w3.org/2000/svg"
 width="472.000000pt" height="472.000000pt" viewBox="0 0 472.000000 472.000000"
 preserveAspectRatio="xMidYMid meet">
<metadata>
Created by potrace 1.11, written by Peter Selinger 2001-2013
</metadata>
<g transform="translate(0.000000,472.000000) scale(0.100000,-0.100000)"
fill="#000000" stroke="none">
<path d="M4070 3460 c-297 -28 -564 -171 -707 -380 -100 -147 -163 -355 -151
-502 15 -181 120 -271 445 -382 233 -79 303 -126 306 -205 l2 -41 263 0 c144
0 262 2 262 5 0 3 7 45 16 95 18 110 9 200 -30 283 -54 114 -158 186 -392 273
-226 83 -276 105 -308 137 -25 24 -28 33 -23 69 14 103 117 178 255 185 66 4
99 -1 234 -36 172 -45 202 -45 289 -1 120 62 188 225 136 326 -64 123 -325
199 -597 174z"/>
<path d="M2399 3430 c-106 -18 -198 -92 -238 -193 -11 -29 -92 -322 -181 -651
-88 -330 -162 -607 -165 -618 -6 -17 5 -18 234 -18 220 0 240 1 245 18 57 185
329 1234 333 1283 4 50 1 74 -12 103 -29 61 -117 92 -216 76z"/>
<path d="M720 3407 c-87 -24 -157 -83 -200 -167 -17 -34 -350 -1250 -350
-1280 0 -6 81 -10 238 -10 l238 0 24 96 c13 52 26 97 30 99 3 2 30 -41 59 -96
l52 -99 295 0 294 0 -71 106 c-39 58 -67 110 -62 114 4 4 31 13 58 19 28 7 95
34 150 61 206 100 347 262 415 475 27 86 38 265 21 344 -35 164 -147 273 -336
327 -51 15 -117 18 -435 20 -280 3 -386 0 -420 -9z m553 -436 c55 -9 92 -33
125 -82 20 -29 23 -43 20 -99 -2 -36 -12 -82 -22 -102 -26 -54 -89 -113 -154
-145 -55 -27 -62 -28 -249 -31 -147 -2 -193 0 -193 9 0 12 92 366 111 427 l11
32 151 -1 c84 0 174 -4 200 -8z"/>
<path d="M150 1880 c0 -20 7 -20 2155 -20 2148 0 2155 0 2155 20 0 20 -7 20
-2155 20 -2148 0 -2155 0 -2155 -20z"/>
<path d="M88 1658 c-47 -183 -50 -202 -37 -251 31 -117 196 -148 337 -64 59
35 93 75 122 140 17 37 90 290 90 309 0 5 -107 8 -238 8 l-238 0 -36 -142z"/>
<path d="M986 1613 c54 -104 108 -204 120 -224 61 -98 175 -119 311 -59 118
52 178 138 178 256 0 68 -2 74 -48 142 l-47 72 -305 0 -306 0 97 -187z"/>
<path d="M1756 1748 c-8 -29 -27 -101 -42 -160 -31 -124 -27 -161 27 -223 48
-54 79 -57 554 -53 418 3 420 3 473 27 31 14 70 43 96 72 32 36 45 45 50 34 8
-21 104 -80 177 -109 96 -37 173 -55 297 -65 439 -39 823 143 1017 482 l27 47
-285 0 -285 0 -58 -27 c-53 -25 -70 -28 -159 -27 -82 1 -113 6 -171 27 -69 26
-79 27 -272 27 l-200 0 -45 -51 -45 -51 -32 23 c-31 24 -34 24 -337 27 l-305
3 6 24 6 25 -239 0 -240 0 -15 -52z"/>
</g>
</svg>
